<svg xmlns="http://www.w3.org/2000/svg" width="1200" height="430" viewBox="0 0 1200 430" role="img" aria-labelledby="title desc">
<title id="title">Currently Exploring</title><desc id="desc">A clean developer-oriented map of current DevOps and cloud exploration areas.</desc>
<rect width="1200" height="430" rx="18" fill="#f6f8fa"/>
<rect x="1" y="1" width="1198" height="428" rx="17" fill="none" stroke="#d0d7de"/>
<text x="52" y="58" font-family="ui-monospace,SFMono-Regular,Menlo,monospace" font-size="13" fill="#57606a">CURRENTLY EXPLORING</text>
<text x="52" y="92" font-family="-apple-system,BlinkMacSystemFont,Segoe UI,sans-serif" font-size="26" font-weight="650" fill="#24292f">Cloud-native systems, delivery &amp; automation</text>
<line x1="52" y1="115" x2="1148" y2="115" stroke="#d8dee4"/>
<path d="M600 147 V382" stroke="#d0d7de" stroke-dasharray="4 7"/>
<path d="M52 263 H1148" stroke="#d0d7de" stroke-dasharray="4 7"/>

<g font-family="-apple-system,BlinkMacSystemFont,Segoe UI,sans-serif">
<g transform="translate(52 140)"><rect width="510" height="102" rx="12" fill="#ffffff" stroke="#d0d7de"/><rect width="4" height="102" rx="2" fill="#0969da"/><text x="24" y="32" font-size="15" font-weight="650" fill="#24292f">01  Platform Engineering</text><text x="24" y="57" font-size="13" fill="#57606a">Self-service infrastructure &amp; developer platforms</text><text x="24" y="82" font-family="ui-monospace,SFMono-Regular,Menlo,monospace" font-size="11" fill="#0969da">Kubernetes  ·  Internal Platforms</text></g>
<g transform="translate(638 140)"><rect width="510" height="102" rx="12" fill="#ffffff" stroke="#d0d7de"/><rect width="4" height="102" rx="2" fill="#8250df"/><text x="24" y="32" font-size="15" font-weight="650" fill="#24292f">02  GitOps &amp; Delivery</text><text x="24" y="57" font-size="13" fill="#57606a">Declarative releases with automated delivery</text><text x="24" y="82" font-family="ui-monospace,SFMono-Regular,Menlo,monospace" font-size="11" fill="#8250df">Argo CD  ·  CI/CD  ·  Progressive Delivery</text></g>
<g transform="translate(52 285)"><rect width="510" height="102" rx="12" fill="#ffffff" stroke="#d0d7de"/><rect width="4" height="102" rx="2" fill="#1a7f37"/><text x="24" y="32" font-size="15" font-weight="650" fill="#24292f">03  Cloud Infrastructure</text><text x="24" y="57" font-size="13" fill="#57606a">Reliable, repeatable infrastructure at scale</text><text x="24" y="82" font-family="ui-monospace,SFMono-Regular,Menlo,monospace" font-size="11" fill="#1a7f37">AWS  ·  Azure  ·  Terraform</text></g>
<g transform="translate(638 285)"><rect width="510" height="102" rx="12" fill="#ffffff" stroke="#d0d7de"/><rect width="4" height="102" rx="2" fill="#bf8700"/><text x="24" y="32" font-size="15" font-weight="650" fill="#24292f">04  AI-assisted Operations</text><text x="24" y="57" font-size="13" fill="#57606a">Smarter automation across cloud operations</text><text x="24" y="82" font-family="ui-monospace,SFMono-Regular,Menlo,monospace" font-size="11" fill="#9a6700">AI Agents  ·  Automation  ·  AIOps</text></g>
</g>
</svg>