<svg xmlns="http://www.w3.org/2000/svg" xmlns:xlink="http://www.w3.org/1999/xlink" viewBox="0 0 1536 820"><defs><style>.ey{font:700 15px ui-monospace,SFMono-Regular,Menlo,monospace;letter-spacing:3.5px;fill:#94a3b8}.h{font:800 48px ui-sans-serif,system-ui,-apple-system,"Segoe UI",sans-serif;letter-spacing:-2.2px;fill:#f8fafc}.lead{font:400 19px ui-sans-serif,system-ui,sans-serif;fill:#94a3b8}.group{font:800 21px ui-sans-serif,system-ui,sans-serif;fill:#f8fafc}.name{font:700 16px ui-sans-serif,system-ui,sans-serif;fill:#e2e8f0}.item{transition:transform .22s ease}.item:hover{transform:translateY(-5px)}@keyframes appear{0%,100%{opacity:.55}50%{opacity:1}}.accent{animation:appear 3s ease-in-out infinite}</style></defs><rect width="1536" height="820" fill="#08111f"/><text x="768" y="52" text-anchor="middle" class="ey">TECHNOLOGY STACK</text><text x="768" y="110" text-anchor="middle" class="h">The tools I work with.</text><text x="768" y="145" text-anchor="middle" class="lead">Cloud, infrastructure, delivery, observability, and development.</text><rect x="728" y="174" width="80" height="4" rx="2" fill="#60a5fa" class="accent"/><text x="100" y="235" class="group">Cloud</text><line x1="100" y1="250" x2="1436" y2="250" stroke="#243247"/><g class="item"><image x="112" y="278" width="52" height="52" href="https://cdn.simpleicons.org/amazonaws/FFFFFF"/><text x="180" y="312" class="name">AWS</text></g><g class="item"><image x="360" y="278" width="52" height="52" href="https://cdn.simpleicons.org/microsoftazure/0078D4"/><text x="428" y="312" class="name">Azure</text></g><text x="100" y="390" class="group">Infrastructure &amp; Delivery</text><line x1="100" y1="405" x2="1436" y2="405" stroke="#243247"/><g class="item"><image x="112" y="435" width="52" height="52" href="https://cdn.simpleicons.org/terraform/844FBA"/><text x="180" y="469" class="name">Terraform</text></g><g class="item"><image x="360" y="435" width="52" height="52" href="https://cdn.simpleicons.org/ansible/EE0000"/><text x="428" y="469" class="name">Ansible</text></g><g class="item"><image x="608" y="435" width="52" height="52" href="https://cdn.simpleicons.org/docker/2496ED"/><text x="676" y="469" class="name">Docker</text></g><g class="item"><image x="856" y="435" width="52" height="52" href="https://cdn.simpleicons.org/kubernetes/326CE5"/><text x="924" y="469" class="name">Kubernetes</text></g><g class="item"><image x="1104" y="435" width="52" height="52" href="https://cdn.simpleicons.org/helm/0F1689"/><text x="1172" y="469" class="name">Helm</text></g><g class="item"><image x="1280" y="435" width="52" height="52" href="https://cdn.simpleicons.org/githubactions/2088FF"/><text x="1348" y="469" class="name">GitHub Actions</text></g><text x="100" y="550" class="group">Observability</text><line x1="100" y1="565" x2="1436" y2="565" stroke="#243247"/><g class="item"><image x="112" y="595" width="52" height="52" href="https://cdn.simpleicons.org/prometheus/E6522C"/><text x="180" y="629" class="name">Prometheus</text></g><g class="item"><image x="390" y="595" width="52" height="52" href="https://cdn.simpleicons.org/grafana/F46800"/><text x="458" y="629" class="name">Grafana</text></g><g class="item"><image x="650" y="595" width="52" height="52" href="https://cdn.simpleicons.org/newrelic/008C99"/><text x="718" y="629" class="name">New Relic</text></g><g class="item"><image x="930" y="595" width="52" height="52" href="https://cdn.simpleicons.org/elastic/FFFFFF"/><text x="998" y="629" class="name">Elastic</text></g><text x="100" y="710" class="group">Development &amp; Scripting</text><line x1="100" y1="725" x2="1436" y2="725" stroke="#243247"/><g class="item"><image x="112" y="750" width="42" height="42" href="https://cdn.simpleicons.org/python/3776AB"/><text x="166" y="778" class="name">Python</text></g><g class="item"><image x="350" y="750" width="42" height="42" href="https://cdn.simpleicons.org/typescript/3178C6"/><text x="404" y="778" class="name">TypeScript</text></g><g class="item"><image x="620" y="750" width="42" height="42" href="https://cdn.simpleicons.org/nodedotjs/339933"/><text x="674" y="778" class="name">Node.js</text></g><g class="item"><image x="860" y="750" width="42" height="42" href="https://cdn.simpleicons.org/powershell/5391FE"/><text x="914" y="778" class="name">PowerShell</text></g><g class="item"><image x="1130" y="750" width="42" height="42" href="https://cdn.simpleicons.org/git/F05032"/><text x="1184" y="778" class="name">Git</text></g></svg>