<svg xmlns="http://www.w3.org/2000/svg" viewBox="0 0 1536 760"><defs><linearGradient id="b" x1="0" y1="0" x2="1" y2="1"><stop stop-color="#FFFFFF"/><stop offset="1" stop-color="#F7F9FC"/></linearGradient><filter id="s" x="-10%" y="-10%" width="120%" height="130%"><feDropShadow dx="0" dy="10" stdDeviation="16" flood-color="#0F172A" flood-opacity=".07"/></filter><style>.ey{font:700 15px ui-monospace;letter-spacing:3.5px;fill:#64748B}.h{font:800 48px ui-sans-serif;letter-spacing:-2px;fill:#111827}.lead{font:400 19px ui-sans-serif;fill:#64748B}.ct{font:800 20px ui-sans-serif;fill:#111827}.cs{font:500 15px ui-sans-serif;fill:#64748B}.nm{font:700 16px ui-sans-serif;fill:#334155}.sub{font:500 13px ui-sans-serif;fill:#64748B}.card{transition:transform .25s ease}.card:hover{transform:translateY(-4px)}</style></defs><rect width="1536" height="760" fill="url(#b)"/><text x="768" y="52" text-anchor="middle" class="ey">TECHNOLOGY STACK</text><text x="768" y="108" text-anchor="middle" class="h">Tools I use to build and operate systems.</text><text x="768" y="140" text-anchor="middle" class="lead">Grouped by where they fit in the engineering workflow.</text>
<g class="card" filter="url(#s)"><rect x="70" y="190" width="680" height="245" rx="24" fill="#FFF" stroke="#E2E8F0"/><circle cx="112" cy="232" r="22" fill="#EFF6FF"/><path d="M102 233h20M105 226h14M106 240h12" stroke="#2563EB" stroke-width="2.5" stroke-linecap="round"/><text x="150" y="230" class="ct">Cloud &amp; Infrastructure</text><text x="150" y="253" class="cs">Provision, configure, and manage infrastructure.</text><g transform="translate(104 288)"><text x="0" y="0" class="nm">AWS</text><text x="100" y="0" class="nm">Azure</text><text x="210" y="0" class="nm">Terraform</text><text x="355" y="0" class="nm">Ansible</text><text x="0" y="42" class="sub">☁</text><text x="100" y="42" class="sub">☁</text><text x="210" y="42" class="sub">IaC</text><text x="355" y="42" class="sub">Config</text></g></g>
<g class="card" filter="url(#s)"><rect x="786" y="190" width="680" height="245" rx="24" fill="#FFF" stroke="#E2E8F0"/><circle cx="828" cy="232" r="22" fill="#EEF2FF"/><path d="M817 232h22M828 221v22M820 225l16 14M836 225l-16 14" stroke="#4F46E5" stroke-width="2.5" stroke-linecap="round"/><text x="866" y="230" class="ct">Containers &amp; Delivery</text><text x="866" y="253" class="cs">Package, release, and automate deployments.</text><g transform="translate(860 288)"><text x="0" y="0" class="nm">Docker</text><text x="115" y="0" class="nm">Kubernetes</text><text x="285" y="0" class="nm">Helm</text><text x="380" y="0" class="nm">GitHub Actions</text><text x="0" y="42" class="sub">Containers</text><text x="115" y="42" class="sub">Orchestration</text><text x="285" y="42" class="sub">Packaging</text><text x="380" y="42" class="sub">CI/CD</text></g></g>
<g class="card" filter="url(#s)"><rect x="70" y="465" width="680" height="225" rx="24" fill="#FFF" stroke="#E2E8F0"/><circle cx="112" cy="507" r="22" fill="#FFF7ED"/><path d="M101 517l8-14 8 9 7-12" fill="none" stroke="#EA580C" stroke-width="2.5" stroke-linecap="round" stroke-linejoin="round"/><text x="150" y="505" class="ct">Observability &amp; Reliability</text><text x="150" y="528" class="cs">See system health, performance, and failures.</text><g transform="translate(104 566)"><text x="0" y="0" class="nm">Prometheus</text><text x="160" y="0" class="nm">Grafana</text><text x="270" y="0" class="nm">Jenkins</text><text x="0" y="42" class="sub">Metrics</text><text x="160" y="42" class="sub">Dashboards</text><text x="270" y="42" class="sub">Automation</text></g></g>
<g class="card" filter="url(#s)"><rect x="786" y="465" width="680" height="225" rx="24" fill="#FFF" stroke="#E2E8F0"/><circle cx="828" cy="507" r="22" fill="#ECFDF5"/><path d="M817 507h22M828 496v22" stroke="#059669" stroke-width="2.5" stroke-linecap="round"/><text x="866" y="505" class="ct">Languages &amp; Development</text><text x="866" y="528" class="cs">Build services, automation, and application layers.</text><g transform="translate(860 566)"><text x="0" y="0" class="nm">Python</text><text x="115" y="0" class="nm">TypeScript</text><text x="265" y="0" class="nm">Node.js</text><text x="385" y="0" class="nm">PowerShell</text><text x="0" y="42" class="sub">Automation</text><text x="115" y="42" class="sub">Apps</text><text x="265" y="42" class="sub">Backend</text><text x="385" y="42" class="sub">Scripting</text></g></g></svg>